<svg id="Robot" xmlns="http://www.w3.org/2000/svg" width="75.84355" height="140.432" viewBox="0 0 75.84355 140.432">
  <title>robot-left-arm</title>
  <path id="left-arm" d="M69.778,112.14782a20.38641,20.38641,0,0,0-10.55924-5.45752V55.34277L29.02952,24.7373A16.08978,16.08978,0,0,0,31.84375,16,15.92207,15.92207,0,1,0,16.026,32a14.34654,14.34654,0,0,0,7.07817-1.86133L51.21875,58.65723V106.6903a22.39886,22.39886,0,0,0-9.72493,5.45654,19.67188,19.67188,0,0,0-5.65007,14.14258A19.96663,19.96663,0,0,0,41.80632,140.432l5.70833-5.6582a12.02483,12.02483,0,1,1,17.022,0l5.65666,5.6582a19.67207,19.67207,0,0,0,5.65027-14.14258A20.06866,20.06866,0,0,0,69.778,112.14782Z" fill="#4c4c4c"/>
</svg>
