<svg id="Robot" xmlns="http://www.w3.org/2000/svg" width="88" height="88" viewBox="0 0 88 88">
  <title>robot-head</title>
  <path id="head" d="M44,0A44,44,0,1,0,88,44,44,44,0,0,0,44,0ZM13,44.5A6.5,6.5,0,1,1,19.5,51,6.49993,6.49993,0,0,1,13,44.5ZM65.21289,65.21289a29.99908,29.99908,0,0,1-42.42627,0,3,3,0,0,1,4.24316-4.24219,24.00009,24.00009,0,0,0,33.94092,0,2.99968,2.99968,0,1,1,4.24219,4.24219ZM69.5,51A6.5,6.5,0,1,1,76,44.5,6.49993,6.49993,0,0,1,69.5,51Z" fill="#331900" fill-rule="evenodd"/>
</svg>
