<svg id="Robot" xmlns="http://www.w3.org/2000/svg" width="76.09387" height="143" viewBox="0 0 76.09387 143">
  <title>robot-right-arm</title>
  <path id="right-arm" d="M5.89921,114.71582a23.4363,23.4363,0,0,1,10.05924-5.45752V55.34277L46.64768,24.7373A16.04108,16.04108,0,1,1,60.11991,32a16.24635,16.24635,0,0,1-7.56254-1.86133L23.95846,58.65723V109.2583a19.396,19.396,0,0,1,10.22493,5.45654A19.9748,19.9748,0,0,1,34.24589,143l-5.64583-5.6582a11.995,11.995,0,1,0-16.96045,0L5.98344,143a20,20,0,0,1-.08423-28.28418Z" fill="#331900"/>
</svg>
